<?xml version="1.0" encoding="utf-8"?>
<!-- Generator: Adobe Illustrator 15.0.0, SVG Export Plug-In  -->
<!DOCTYPE svg PUBLIC "-//W3C//DTD SVG 1.1//EN" "http://www.w3.org/Graphics/SVG/1.1/DTD/svg11.dtd" [
	<!ENTITY ns_flows "http://ns.adobe.com/Flows/1.0/">
]>
<svg version="1.1"
	 xmlns="http://www.w3.org/2000/svg" xmlns:xlink="http://www.w3.org/1999/xlink" xmlns:a="http://ns.adobe.com/AdobeSVGViewerExtensions/3.0/"
	 x="0px" y="0px" width="227px" height="231px" viewBox="-7.137 -9.324 227 231"
	 overflow="visible" enable-background="new -7.137 -9.324 227 231" xml:space="preserve">
<defs>
</defs>
<circle fill="#1C75BC" cx="106.801" cy="106.801" r="106.801"/>
<linearGradient id="SVGID_1_" gradientUnits="userSpaceOnUse" x1="0" y1="106.8013" x2="213.6016" y2="106.8013">
	<stop  offset="0" style="stop-color:#000000"/>
	<stop  offset="0.1018" style="stop-color:#000000;stop-opacity:0.8982"/>
	<stop  offset="0.3055" style="stop-color:#000000;stop-opacity:0.6945"/>
	<stop  offset="0.5925" style="stop-color:#000000;stop-opacity:0.4075"/>
	<stop  offset="0.9485" style="stop-color:#000000;stop-opacity:0.0515"/>
	<stop  offset="1" style="stop-color:#000000;stop-opacity:0"/>
</linearGradient>
<circle fill="url(#SVGID_1_)" cx="106.801" cy="106.801" r="106.801"/>
<circle fill="#FFFFFF" cx="106.801" cy="106.801" r="11.694"/>
<g>
	<g>
		<path fill="#FFFFFF" d="M106.882,167.214c-20.855-0.201-39.852-10.695-50.886-27.69c-11.139-17.156-12.757-39.989-3.835-58.615
			c8.817-18.408,26.787-31.596,46.201-34.04c21.815-2.747,41.712,5.704,55.618,22.092c11.24,13.248,15.777,32.749,11.848,50.85
			c-4.298,19.793-18.04,34.967-36.245,43.073c-5.61,2.498-6.845,10.562-4.008,15.4c3.356,5.727,9.804,6.5,15.4,4.008
			c22.895-10.193,39.946-30.974,46.225-55.145c6.179-23.785,0.874-50.282-13.96-69.836c-15.028-19.812-37.367-31.632-62.146-33.308
			c-24.101-1.629-48.308,8.693-64.786,26.094c-22.79,24.067-28.334,60.139-15.246,90.296c12.961,29.863,43.34,49.015,75.658,49.327
			C121.256,189.86,121.37,167.354,106.882,167.214L106.882,167.214z"/>
	</g>
</g>
<g>
	<g>
		<path fill="#FFFFFF" d="M95.548,136.888c0,13.833,0,27.665,0,41.498c0,14.529,22.505,14.657,22.505,0.162
			c0-13.833,0-27.665,0-41.498C118.054,122.521,95.548,122.393,95.548,136.888L95.548,136.888z"/>
	</g>
</g>
</svg>
